STARTFONT 2.1
COMMENT $XConsortium: lubB24.bdf,v 1.10 94/04/02 16:00:34 gildea Exp $
COMMENT  (c) Copyright Bigelow & Holmes 1986, 1985. Lucida is a registered
COMMENT  trademark of Bigelow & Holmes. See LEGAL NOTICE file for terms 
COMMENT  of the license. 
COMMENT  
COMMENT  Translation to ISO8859-2 by Cub Soft;  Petr.Kolar@vslib.cz
COMMENT  
FONT -B&H-LucidaBright-DemiBold-R-Normal--24-240-75-75-P-143-ISO8859-2
SIZE 24 72 72
FONTBOUNDINGBOX 44 27 -15 -5
STARTPROPERTIES 20
COMMENT Begin LogicalFontDescription
FONTNAME_REGISTRY ""
FOUNDRY "B&H"
FAMILY_NAME "LucidaBright"
WEIGHT_NAME "DemiBold"
SLANT "R"
SETWIDTH_NAME "Normal"
ADD_STYLE_NAME ""
PIXEL_SIZE 24
POINT_SIZE 240
RESOLUTION_X 75
RESOLUTION_Y 75
SPACING "P"
AVERAGE_WIDTH 143
CHARSET_REGISTRY "ISO8859"
CHARSET_ENCODING "2"
COMMENT END LogicalFontDescription
FONT_ASCENT 22
FONT_DESCENT 5
DEFAULT_CHAR 0
COPYRIGHT "Copyright Bigelow & Holmes 1986, 1985., Copyright 1996 Cub Soft"
FACE_NAME "Lucida Bright Demibold"
ENDPROPERTIES
CHARS 191
STARTCHAR space
ENCODING 32
SWIDTH 333 0
DWIDTH 8 0
BBX 1 1 0 0
BITMAP
00
ENDCHAR
STARTCHAR exclam
ENCODING 33
SWIDTH 265 0
DWIDTH 6 0
BBX 4 17 1 0
BITMAP
f0
f0
f0
f0
f0
f0
e0
e0
60
60
40
40
00
f0
f0
f0
f0
ENDCHAR
STARTCHAR quotedbl
ENCODING 34
SWIDTH 461 0
DWIDTH 11 0
BBX 8 7 2 11
BITMAP
ff
ff
e7
e7
66
42
42
ENDCHAR
STARTCHAR numbersign
ENCODING 35
SWIDTH 663 0
DWIDTH 16 0
BBX 15 17 0 0
BITMAP
0318
0318
0338
0630
0630
7ffe
7ffe
0c60
0c60
0c60
0c60
fffc
fffc
18c0
18c0
3180
3180
ENDCHAR
STARTCHAR dollar
ENCODING 36
SWIDTH 623 0
DWIDTH 15 0
BBX 11 22 2 -3
BITMAP
0400
0400
3fc0
7dc0
f4c0
f4c0
f400
fc00
7c00
3e00
1f00
07c0
07c0
05e0
05e0
c5e0
c5e0
e5c0
ff80
0400
0400
0400
ENDCHAR
STARTCHAR percent
ENCODING 37
SWIDTH 759 0
DWIDTH 18 0
BBX 19 17 0 0
BITMAP
3e00e0
6301c0
e38380
e38700
e38e00
e39c00
633800
3e7000
00ef80
01d8c0
03b8e0
0738e0
0e38e0
1c38e0
3838e0
7018c0
e00f80
ENDCHAR
STARTCHAR ampersand
ENCODING 38
SWIDTH 765 0
DWIDTH 18 0
BBX 17 17 1 0
BITMAP
07c000
0ee000
1ef000
1ef000
1ef000
0ec000
070000
1e1f80
330700
738600
f1c600
f1e400
f0fc00
f8f800
787c00
3fdf00
0f9f80
ENDCHAR
STARTCHAR apostrophe
ENCODING 39
SWIDTH 265 0
DWIDTH 6 0
BBX 4 7 1 11
BITMAP
f0
f0
f0
f0
70
70
e0
ENDCHAR
STARTCHAR parenleft
ENCODING 40
SWIDTH 327 0
DWIDTH 8 0
BBX 7 22 0 -4
BITMAP
02
06
0c
18
38
78
70
70
f0
f0
f0
f0
f0
f0
70
70
78
38
18
0c
06
02
ENDCHAR
STARTCHAR parenright
ENCODING 41
SWIDTH 327 0
DWIDTH 8 0
BBX 7 22 0 -4
BITMAP
80
c0
60
30
38
3c
1c
1c
1e
1e
1e
1e
1e
1e
1c
1c
3c
38
30
60
c0
80
ENDCHAR
STARTCHAR asterisk
ENCODING 42
SWIDTH 434 0
DWIDTH 11 0
BBX 9 9 1 8
BITMAP
1c00
0800
4900
ef80
7300
1400
3600
7700
2200
ENDCHAR
STARTCHAR plus
ENCODING 43
SWIDTH 623 0
DWIDTH 15 0
BBX 14 14 1 0
BITMAP
0300
0300
0300
0300
0300
0300
fffc
fffc
0300
0300
0300
0300
0300
0300
ENDCHAR
STARTCHAR comma
ENCODING 44
SWIDTH 265 0
DWIDTH 6 0
BBX 4 8 1 -4
BITMAP
f0
f0
f0
f0
70
70
60
c0
ENDCHAR
STARTCHAR minus
ENCODING 45
SWIDTH 623 0
DWIDTH 15 0
BBX 14 2 1 6
BITMAP
fffc
fffc
ENDCHAR
STARTCHAR period
ENCODING 46
SWIDTH 265 0
DWIDTH 6 0
BBX 4 4 1 0
BITMAP
f0
f0
f0
f0
ENDCHAR
STARTCHAR slash
ENCODING 47
SWIDTH 527 0
DWIDTH 13 0
BBX 13 22 0 -4
BITMAP
0018
0030
0030
0060
0060
00c0
00c0
0180
0180
0300
0300
0600
0600
0c00
0c00
1800
1800
3000
3000
6000
6000
c000
ENDCHAR
STARTCHAR zero
ENCODING 48
SWIDTH 623 0
DWIDTH 15 0
BBX 13 17 1 0
BITMAP
0f80
18c0
38e0
78f0
7070
f078
f078
f078
f078
f078
f078
f078
7070
78f0
38e0
18c0
0f80
ENDCHAR
STARTCHAR one
ENCODING 49
SWIDTH 623 0
DWIDTH 15 0
BBX 10 17 3 0
BITMAP
fe00
1e00
1e00
1e00
1e00
1e00
1e00
1e00
1e00
1e00
1e00
1e00
1e00
1e00
1e00
3f00
ffc0
ENDCHAR
STARTCHAR two
ENCODING 50
SWIDTH 623 0
DWIDTH 15 0
BBX 12 17 1 0
BITMAP
7f80
e1e0
c0f0
c0f0
00f0
00f0
00e0
01c0
0380
0600
0800
1000
3000
7ff0
7ff0
fff0
fff0
ENDCHAR
STARTCHAR three
ENCODING 51
SWIDTH 623 0
DWIDTH 15 0
BBX 12 17 2 0
BITMAP
7f00
e3c0
c1e0
c1e0
01e0
01c0
01c0
0300
3f80
03e0
01e0
00f0
00f0
c0f0
c1e0
e3c0
ff00
ENDCHAR
STARTCHAR four
ENCODING 52
SWIDTH 623 0
DWIDTH 15 0
BBX 14 17 0 0
BITMAP
0070
00f0
01f0
02f0
04f0
0cf0
08f0
10f0
20f0
60f0
fffc
fffc
fffc
00f0
00f0
00f0
03fc
ENDCHAR
STARTCHAR five
ENCODING 53
SWIDTH 623 0
DWIDTH 15 0
BBX 10 17 3 0
BITMAP
ffc0
ffc0
ffc0
8000
8000
8000
8000
fc00
0f80
0780
03c0
03c0
03c0
c3c0
c380
c780
fe00
ENDCHAR
STARTCHAR six
ENCODING 54
SWIDTH 623 0
DWIDTH 15 0
BBX 13 17 1 0
BITMAP
07e0
1c70
3830
7830
7000
f000
f3c0
f7f0
f8f0
f078
f078
f078
7078
7078
3870
38e0
0f80
ENDCHAR
STARTCHAR seven
ENCODING 55
SWIDTH 623 0
DWIDTH 15 0
BBX 12 17 2 0
BITMAP
fff0
fff0
fff0
ffe0
0060
00c0
0180
0100
0300
0600
0e00
1c00
1c00
3800
3800
7800
7800
ENDCHAR
STARTCHAR eight
ENCODING 56
SWIDTH 623 0
DWIDTH 15 0
BBX 13 17 1 0
BITMAP
0fc0
3de0
78f0
78f0
78f0
7ce0
3fc0
1f00
0fc0
3bf0
70f8
f078
f078
f078
f070
78e0
1fc0
ENDCHAR
STARTCHAR nine
ENCODING 57
SWIDTH 623 0
DWIDTH 15 0
BBX 13 17 1 0
BITMAP
0f80
38e0
70e0
f070
f070
f078
f078
f078
78f8
7f78
1e78
0078
0070
60f0
60e0
71c0
3f00
ENDCHAR
STARTCHAR colon
ENCODING 58
SWIDTH 265 0
DWIDTH 6 0
BBX 4 13 1 0
BITMAP
f0
f0
f0
f0
00
00
00
00
00
f0
f0
f0
f0
ENDCHAR
STARTCHAR semicolon
ENCODING 59
SWIDTH 265 0
DWIDTH 6 0
BBX 4 17 1 -4
BITMAP
f0
f0
f0
f0
00
00
00
00
00
f0
f0
f0
f0
70
70
60
c0
ENDCHAR
STARTCHAR less
ENCODING 60
SWIDTH 623 0
DWIDTH 15 0
BBX 14 14 1 0
BITMAP
0004
001c
0078
01e0
0780
1e00
f800
7800
1e00
0780
01e0
0078
001c
0004
ENDCHAR
STARTCHAR equal
ENCODING 61
SWIDTH 623 0
DWIDTH 15 0
BBX 14 6 1 4
BITMAP
fffc
fffc
0000
0000
fffc
fffc
ENDCHAR
STARTCHAR greater
ENCODING 62
SWIDTH 623 0
DWIDTH 15 0
BBX 14 14 1 0
BITMAP
8000
e000
7800
1e00
0780
01e0
0078
007c
01e0
0780
1e00
7800
e000
8000
ENDCHAR
STARTCHAR question
ENCODING 63
SWIDTH 505 0
DWIDTH 12 0
BBX 12 17 0 0
BITMAP
7f80
e1e0
c0f0
c0f0
00f0
00e0
01c0
0180
0700
0e00
1e00
1e00
0000
1e00
1e00
1e00
1e00
ENDCHAR
STARTCHAR at
ENCODING 64
SWIDTH 861 0
DWIDTH 21 0
BBX 19 17 1 0
BITMAP
00fc00
030300
0c0080
100040
20fe20
618c20
430c20
c61c20
8e1c20
8e3c40
8e7c40
8fdd80
c71e00
400000
200000
181800
07f000
ENDCHAR
STARTCHAR A
ENCODING 65
SWIDTH 795 0
DWIDTH 19 0
BBX 19 17 0 0
BITMAP
006000
00e000
00f000
01f000
01f800
017800
027800
027c00
043c00
043e00
081e00
0fff00
100f00
100780
200780
6003c0
f80fe0
ENDCHAR
STARTCHAR B
ENCODING 66
SWIDTH 639 0
DWIDTH 15 0
BBX 14 17 0 0
BITMAP
ffe0
3cf0
3c78
3c78
3c78
3c78
3c70
3cc0
3fc0
3cf0
3c78
3c3c
3c3c
3c3c
3c3c
3c78
ffe0
ENDCHAR
STARTCHAR C
ENCODING 67
SWIDTH 711 0
DWIDTH 17 0
BBX 15 17 1 0
BITMAP
03fc
1e0e
3c06
7806
7800
f000
f000
f000
f000
f000
f000
f800
7800
7c00
3e06
1ffe
03f8
ENDCHAR
STARTCHAR D
ENCODING 68
SWIDTH 794 0
DWIDTH 19 0
BBX 18 17 0 0
BITMAP
fff800
3c1e00
3c0f00
3c0780
3c0380
3c03c0
3c03c0
3c03c0
3c03c0
3c03c0
3c03c0
3c0380
3c0780
3c0780
3c0f00
3c1e00
fff800
ENDCHAR
STARTCHAR E
ENCODING 69
SWIDTH 601 0
DWIDTH 14 0
BBX 13 17 1 0
BITMAP
fff8
3c18
3c18
3c00
3c00
3c00
3c00
3c20
3fe0
3c20
3c00
3c00
3c00
3c00
3c18
3c18
fff8
ENDCHAR
STARTCHAR F
ENCODING 70
SWIDTH 584 0
DWIDTH 14 0
BBX 13 17 0 0
BITMAP
fff8
3c18
3c18
3c00
3c00
3c00
3c00
3c20
3fe0
3c20
3c00
3c00
3c00
3c00
3c00
3c00
ff00
ENDCHAR
STARTCHAR G
ENCODING 71
SWIDTH 753 0
DWIDTH 18 0
BBX 17 17 1 0
BITMAP
03fc00
1e0e00
3c0600
780600
780000
f00000
f00000
f00000
f00000
f07f80
f01e00
f01e00
781e00
781e00
3c1e00
1e1e00
03fc00
ENDCHAR
STARTCHAR H
ENCODING 72
SWIDTH 798 0
DWIDTH 19 0
BBX 18 17 1 0
BITMAP
ff3fc0
3c0f00
3c0f00
3c0f00
3c0f00
3c0f00
3c0f00
3c0f00
3fff00
3c0f00
3c0f00
3c0f00
3c0f00
3c0f00
3c0f00
3c0f00
ff3fc0
ENDCHAR
STARTCHAR I
ENCODING 73
SWIDTH 349 0
DWIDTH 8 0
BBX 8 17 0 0
BITMAP
ff
3c
3c
3c
3c
3c
3c
3c
3c
3c
3c
3c
3c
3c
3c
3c
ff
ENDCHAR
STARTCHAR J
ENCODING 74
SWIDTH 452 0
DWIDTH 11 0
BBX 11 21 0 -4
BITMAP
1fe0
0780
0780
0780
0780
0780
0780
0780
0780
0780
0780
0780
0780
0780
0780
0780
0780
0780
c700
cf00
fc00
ENDCHAR
STARTCHAR K
ENCODING 75
SWIDTH 747 0
DWIDTH 18 0
BBX 17 17 1 0
BITMAP
ff1f00
3c0c00
3c1800
3c3000
3c6000
3c4000
3c8000
3dc000
3fc000
3fe000
3df000
3cf800
3cf800
3c7c00
3c3e00
3c1f00
ff3f80
ENDCHAR
STARTCHAR L
ENCODING 76
SWIDTH 584 0
DWIDTH 14 0
BBX 14 17 0 0
BITMAP
ff00
3c00
3c00
3c00
3c00
3c00
3c00
3c00
3c00
3c00
3c00
3c00
3c00
3c0c
3c0c
3c0c
fffc
ENDCHAR
STARTCHAR M
ENCODING 77
SWIDTH 904 0
DWIDTH 22 0
BBX 21 17 0 0
BITMAP
fe01f8
3e03e0
3e03e0
3f03e0
3f07e0
3787e0
378de0
37cde0
33d9e0
33f9e0
31f9e0
31f1e0
31f1e0
30e1e0
30e1e0
3001e0
fc07f8
ENDCHAR
STARTCHAR N
ENCODING 78
SWIDTH 788 0
DWIDTH 19 0
BBX 18 17 0 0
BITMAP
f80fc0
3c0300
3e0300
3f0300
3f0300
3f8300
37c300
33e300
33e300
31f300
30fb00
307f00
307f00
303f00
301f00
300f00
fc0f00
ENDCHAR
STARTCHAR O
ENCODING 79
SWIDTH 810 0
DWIDTH 19 0
BBX 18 17 1 0
BITMAP
07f800
1e1e00
3c0f00
780780
780780
f003c0
f003c0
f003c0
f003c0
f003c0
f003c0
f003c0
780780
780780
3c0f00
1e1e00
03f000
ENDCHAR
STARTCHAR P
ENCODING 80
SWIDTH 614 0
DWIDTH 15 0
BBX 14 17 0 0
BITMAP
ffe0
3c78
3c3c
3c3c
3c3c
3c3c
3c3c
3c38
3c70
3fc0
3c00
3c00
3c00
3c00
3c00
3c00
ff00
ENDCHAR
STARTCHAR Q
ENCODING 81
SWIDTH 810 0
DWIDTH 19 0
BBX 21 21 1 -4
BITMAP
03f800
1e1e00
3c0f00
780780
780780
f003c0
f003c0
f003c0
f003c0
f003c0
f003c0
f003c0
780780
780780
3c0f00
1e1e00
03f800
000f00
0007f8
0003f0
000060
ENDCHAR
STARTCHAR R
ENCODING 82
SWIDTH 720 0
DWIDTH 17 0
BBX 17 17 0 0
BITMAP
ffe000
3c7800
3c3c00
3c3c00
3c3c00
3c3c00
3c7c00
3cf800
3ff000
3de000
3cf000
3cf800
3c7c00
3c7c00
3c3e00
3c1f00
ff1f80
ENDCHAR
STARTCHAR S
ENCODING 83
SWIDTH 556 0
DWIDTH 13 0
BBX 12 17 1 0
BITMAP
1fc0
78e0
7060
f060
f000
f800
fe00
7f80
3fc0
0fe0
03f0
01f0
00f0
c0f0
c0e0
e1c0
7f00
ENDCHAR
STARTCHAR T
ENCODING 84
SWIDTH 714 0
DWIDTH 17 0
BBX 16 17 1 0
BITMAP
ffff
c3c3
c3c3
c3c3
03c0
03c0
03c0
03c0
03c0
03c0
03c0
03c0
03c0
03c0
03c0
03c0
0ff0
ENDCHAR
STARTCHAR U
ENCODING 85
SWIDTH 747 0
DWIDTH 18 0
BBX 18 17 0 0
BITMAP
ff0fc0
3c0300
3c0300
3c0300
3c0300
3c0300
3c0300
3c0300
3c0300
3c0300
3c0300
3c0300
3c0300
3c0300
1e0600
0f0c00
03f800
ENDCHAR
STARTCHAR V
ENCODING 86
SWIDTH 753 0
DWIDTH 18 0
BBX 18 17 0 0
BITMAP
fe07c0
7c0100
3c0300
3e0200
1e0200
1f0600
0f0400
0f8c00
078800
078800
07d000
03d000
03e000
01e000
01e000
00c000
00c000
ENDCHAR
STARTCHAR W
ENCODING 87
SWIDTH 955 0
DWIDTH 23 0
BBX 23 17 0 0
BITMAP
fe083e
781c08
7c1c08
3c1c10
3c3e10
3e3e10
1e3e10
1e5f20
1e4f20
0f4f20
0f8fc0
0f87c0
0f87c0
070380
070380
070380
020100
ENDCHAR
STARTCHAR X
ENCODING 88
SWIDTH 702 0
DWIDTH 17 0
BBX 17 17 0 0
BITMAP
7f0f80
3e0600
3e0400
1f0c00
0f0800
0f9000
07e000
03e000
03e000
07f000
06f000
0ef800
1c7c00
183c00
303e00
701f00
f87f80
ENDCHAR
STARTCHAR Y
ENCODING 89
SWIDTH 717 0
DWIDTH 17 0
BBX 18 17 0 0
BITMAP
ff07c0
7c0300
3e0200
1f0200
1f0400
0f8800
07c800
07d000
03e000
01e000
01e000
01e000
01e000
01e000
01e000
01e000
07f800
ENDCHAR
STARTCHAR Z
ENCODING 90
SWIDTH 639 0
DWIDTH 15 0
BBX 13 17 1 0
BITMAP
7ff8
60f8
60f8
01f0
01e0
03e0
07c0
0780
0f80
0f00
1f00
3e00
3c00
7c00
7818
f818
fff8
ENDCHAR
STARTCHAR bracketleft
ENCODING 91
SWIDTH 327 0
DWIDTH 8 0
BBX 6 22 1 -4
BITMAP
fc
f0
f0
f0
f0
f0
f0
f0
f0
f0
f0
f0
f0
f0
f0
f0
f0
f0
f0
f0
f0
fc
ENDCHAR
STARTCHAR backslash
ENCODING 92
SWIDTH 527 0
DWIDTH 13 0
BBX 13 22 0 -4
BITMAP
c000
6000
6000
3000
3000
1800
1800
0c00
0c00
0600
0600
0300
0300
0180
0180
00c0
00c0
0060
0060
0030
0030
0018
ENDCHAR
STARTCHAR bracketright
ENCODING 93
SWIDTH 327 0
DWIDTH 8 0
BBX 6 22 1 -4
BITMAP
fc
3c
3c
3c
3c
3c
3c
3c
3c
3c
3c
3c
3c
3c
3c
3c
3c
3c
3c
3c
3c
fc
ENDCHAR
STARTCHAR asciicircum
ENCODING 94
SWIDTH 623 0
DWIDTH 15 0
BBX 14 14 1 3
BITMAP
0100
0300
0300
0780
0780
0cc0
0cc0
1860
1860
3030
3030
6018
6018
c00c
ENDCHAR
STARTCHAR underscore
ENCODING 95
SWIDTH 500 0
DWIDTH 12 0
BBX 10 2 1 -3
BITMAP
ffc0
ffc0
ENDCHAR
STARTCHAR grave
ENCODING 96
SWIDTH 617 0
DWIDTH 15 0
BBX 6 4 4 14
BITMAP
f0
30
18
0c
ENDCHAR
STARTCHAR a
ENCODING 97
SWIDTH 556 0
DWIDTH 13 0
BBX 13 13 0 0
BITMAP
3f80
71c0
61e0
01e0
01e0
3fe0
79e0
f1e0
f1e0
f1e0
f9e0
7fe0
3c78
ENDCHAR
STARTCHAR b
ENCODING 98
SWIDTH 640 0
DWIDTH 15 0
BBX 15 18 0 0
BITMAP
fc00
3c00
3c00
3c00
3c00
3cf0
3dfc
3ffc
3e3e
3c1e
3c1e
3c1e
3c1e
3c1e
3c3c
3e3c
3bf8
39f0
ENDCHAR
STARTCHAR c
ENCODING 99
SWIDTH 541 0
DWIDTH 13 0
BBX 11 13 1 0
BITMAP
0fe0
38e0
7060
7060
f000
f000
f000
f000
f000
7800
7c20
3fe0
0fc0
ENDCHAR
STARTCHAR d
ENCODING 100
SWIDTH 652 0
DWIDTH 16 0
BBX 15 18 1 0
BITMAP
01f8
0078
0078
0078
0078
1e78
3ff8
78f8
7078
f078
f078
f078
f078
f078
f8f8
7ff8
7f7c
1e7e
ENDCHAR
STARTCHAR e
ENCODING 101
SWIDTH 568 0
DWIDTH 14 0
BBX 12 13 1 0
BITMAP
0f80
39c0
70e0
70f0
f0f0
fff0
f000
f000
f000
7800
7c10
3ff0
0fe0
ENDCHAR
STARTCHAR f
ENCODING 102
SWIDTH 416 0
DWIDTH 10 0
BBX 11 18 0 0
BITMAP
0fc0
1c60
3c60
3c00
3c00
ffc0
3c00
3c00
3c00
3c00
3c00
3c00
3c00
3c00
3c00
3c00
3c00
ff00
ENDCHAR
STARTCHAR g
ENCODING 103
SWIDTH 599 0
DWIDTH 14 0
BBX 14 18 0 -5
BITMAP
0ffc
38e8
78f0
78f0
78f0
78f0
38e0
18e0
07c0
3800
7ff0
3ff8
1ff8
7078
f078
f070
78e0
3fc0
ENDCHAR
STARTCHAR h
ENCODING 104
SWIDTH 654 0
DWIDTH 16 0
BBX 16 18 0 0
BITMAP
fc00
3c00
3c00
3c00
3c00
3c70
3df8
3dfc
3e3c
3c3c
3c3c
3c3c
3c3c
3c3c
3c3c
3c3c
3c3c
ffff
ENDCHAR
STARTCHAR i
ENCODING 105
SWIDTH 325 0
DWIDTH 8 0
BBX 8 18 0 0
BITMAP
3c
3c
3c
3c
00
fc
3c
3c
3c
3c
3c
3c
3c
3c
3c
3c
3c
ff
ENDCHAR
STARTCHAR j
ENCODING 106
SWIDTH 355 0
DWIDTH 9 0
BBX 8 23 0 -5
BITMAP
0f
0f
0f
0f
00
1f
0f
0f
0f
0f
0f
0f
0f
0f
0f
0f
0f
0f
0f
cf
cf
ce
fc
ENDCHAR
STARTCHAR k
ENCODING 107
SWIDTH 654 0
DWIDTH 15 0
BBX 15 18 1 0
BITMAP
fc00
3c00
3c00
3c00
3c00
3c3c
3c30
3c20
3c40
3c80
3dc0
3fc0
3fe0
3df0
3cf0
3cf8
3c7c
ff3e
ENDCHAR
STARTCHAR l
ENCODING 108
SWIDTH 325 0
DWIDTH 8 0
BBX 8 18 0 0
BITMAP
fc
3c
3c
3c
3c
3c
3c
3c
3c
3c
3c
3c
3c
3c
3c
3c
3c
ff
ENDCHAR
STARTCHAR m
ENCODING 109
SWIDTH 967 0
DWIDTH 23 0
BBX 24 13 0 0
BITMAP
fcf0f0
3df9f8
3ffffc
3e3e3c
3c3c3c
3c3c3c
3c3c3c
3c3c3c
3c3c3c
3c3c3c
3c3c3c
3c3c3c
ffffff
ENDCHAR
STARTCHAR n
ENCODING 110
SWIDTH 654 0
DWIDTH 16 0
BBX 16 13 0 0
BITMAP
fc70
7df8
3dfc
3e3c
3c3c
3c3c
3c3c
3c3c
3c3c
3c3c
3c3c
3c3c
ffff
ENDCHAR
STARTCHAR o
ENCODING 111
SWIDTH 617 0
DWIDTH 15 0
BBX 13 13 1 0
BITMAP
0f80
38e0
78f0
7070
f078
f078
f078
f078
f078
7070
78f0
38e0
0f80
ENDCHAR
STARTCHAR p
ENCODING 112
SWIDTH 652 0
DWIDTH 16 0
BBX 15 18 0 -5
BITMAP
fcf0
7dfc
3ffc
3e3e
3c1e
3c1e
3c1e
3c1e
3c1e
3c3c
3e3c
3ff8
3cf0
3c00
3c00
3c00
3c00
ff00
ENDCHAR
STARTCHAR q
ENCODING 113
SWIDTH 640 0
DWIDTH 15 0
BBX 15 18 1 -5
BITMAP
1e78
3ff8
78f8
7878
f078
f078
f078
f078
f078
f8f8
7ff8
7f78
1e78
0078
0078
0078
0078
01fe
ENDCHAR
STARTCHAR r
ENCODING 114
SWIDTH 462 0
DWIDTH 11 0
BBX 11 13 0 0
BITMAP
fce0
3de0
3fe0
3e60
3c00
3c00
3c00
3c00
3c00
3c00
3c00
3c00
ff00
ENDCHAR
STARTCHAR s
ENCODING 115
SWIDTH 525 0
DWIDTH 13 0
BBX 10 13 1 0
BITMAP
3f00
7980
f180
f180
f800
ff00
7f80
3fc0
07c0
c3c0
c3c0
e780
7e00
ENDCHAR
STARTCHAR t
ENCODING 116
SWIDTH 389 0
DWIDTH 9 0
BBX 9 16 0 0
BITMAP
1c00
3c00
3c00
ff80
3c00
3c00
3c00
3c00
3c00
3c00
3c00
3c00
3c00
3c00
1f80
0f80
ENDCHAR
STARTCHAR u
ENCODING 117
SWIDTH 654 0
DWIDTH 16 0
BBX 16 13 0 0
BITMAP
fcfc
3c3c
3c3c
3c3c
3c3c
3c3c
3c3c
3c3c
3c3c
3c7c
3fbc
1fbe
0e3f
ENDCHAR
STARTCHAR v
ENCODING 118
SWIDTH 657 0
DWIDTH 16 0
BBX 16 13 0 0
BITMAP
fe1f
7c04
3c0c
1e08
1e18
1f10
0f30
0fa0
07e0
07c0
03c0
0380
0180
ENDCHAR
STARTCHAR w
ENCODING 119
SWIDTH 880 0
DWIDTH 21 0
BBX 21 13 0 0
BITMAP
fe18f8
783820
7c3c20
3c7c60
3c7c40
1e7e40
1e9e80
1e9f80
0f0f80
0f0f00
0f0f00
060700
060600
ENDCHAR
STARTCHAR x
ENCODING 120
SWIDTH 608 0
DWIDTH 15 0
BBX 15 13 0 0
BITMAP
ff3e
7c18
3e30
1f20
0fc0
0f80
07c0
07e0
05f0
09f0
10f8
307c
f8fe
ENDCHAR
STARTCHAR y
ENCODING 121
SWIDTH 654 0
DWIDTH 16 0
BBX 16 18 0 -5
BITMAP
fe1f
7c04
3c0c
3e08
1e18
1f10
0f30
0fa0
07c0
07c0
0380
0380
0300
0100
0200
0600
0c00
3c00
ENDCHAR
STARTCHAR z
ENCODING 122
SWIDTH 584 0
DWIDTH 14 0
BBX 12 13 1 0
BITMAP
fff0
c1f0
c3e0
03c0
07c0
0f80
1f00
1f00
3e00
7c00
7c30
f830
fff0
ENDCHAR
STARTCHAR braceleft
ENCODING 123
SWIDTH 366 0
DWIDTH 9 0
BBX 6 22 1 -4
BITMAP
1c
38
78
78
78
78
78
78
78
70
e0
60
70
78
78
78
78
78
78
78
38
1c
ENDCHAR
STARTCHAR bar
ENCODING 124
SWIDTH 259 0
DWIDTH 6 0
BBX 2 22 2 -4
BITMAP
c0
c0
c0
c0
c0
c0
c0
c0
c0
c0
c0
c0
c0
c0
c0
c0
c0
c0
c0
c0
c0
c0
ENDCHAR
STARTCHAR braceright
ENCODING 125
SWIDTH 366 0
DWIDTH 9 0
BBX 6 22 1 -4
BITMAP
e0
70
78
78
78
78
78
78
78
38
1c
18
38
78
78
78
78
78
78
78
70
e0
ENDCHAR
STARTCHAR asciitilde
ENCODING 126
SWIDTH 623 0
DWIDTH 15 0
BBX 14 6 1 4
BITMAP
3800
7e04
4704
8388
81f8
8070
ENDCHAR
STARTCHAR nobreakspace
ENCODING 160
SWIDTH 333 0
DWIDTH 8 0
BBX 1 1 0 0
BITMAP
00
ENDCHAR
STARTCHAR Aogonek
ENCODING 161
SWIDTH 795 0
DWIDTH 19 0
BBX 19 21 0 -4
BITMAP
006000
00e000
00f000
01f000
01f800
017800
027800
027c00
043c00
043e00
081e00
0fff00
100f00
100780
200780
6003c0
f80fe0
006000
00c000
00d000
007000
ENDCHAR
STARTCHAR breve
ENCODING 162
SWIDTH 617 0
DWIDTH 15 0
BBX 8 4 3 14
BITMAP
81
ff
7e
3c
ENDCHAR
STARTCHAR Lstroke
ENCODING 163
SWIDTH 584 0
DWIDTH 14 0
BBX 14 17 0 0
BITMAP
ff00
3c00
3c00
3c00
3c00
3d00
3f00
3c00
7c00
fc00
bc00
3c00
3c00
3c0c
3c0c
3c0c
fffc
ENDCHAR
STARTCHAR currency
ENCODING 164
SWIDTH 623 0
DWIDTH 15 0
BBX 14 15 0 1
BITMAP
8004
4008
2790
1fe0
1ce0
3870
3030
3030
3030
3870
1ce0
1fe0
2790
4008
8004
ENDCHAR
STARTCHAR Lcaron
ENCODING 165
SWIDTH 584 0
DWIDTH 14 0
BBX 14 19 0 0
BITMAP
0078
0078
ff78
3c78
3c38
3c38
3c70
3c00
3c00
3c00
3c00
3c00
3c00
3c00
3c00
3c0c
3c0c
3c0c
fffc
ENDCHAR
STARTCHAR Sacute
ENCODING 166
SWIDTH 556 0
DWIDTH 13 0
BBX 12 22 1 0
BITMAP
01e0
0180
0300
0600
0000
1fc0
78e0
7060
f060
f000
f800
fe00
7f80
3fc0
0fe0
03f0
01f0
00f0
c0f0
c0e0
e1c0
7f00
ENDCHAR
STARTCHAR section
ENCODING 167
SWIDTH 623 0
DWIDTH 15 0
BBX 11 22 2 -5
BITMAP
1fc0
79c0
f0c0
f0c0
f000
fc00
7f00
3fc0
6fc0
e7e0
e1e0
f0e0
fce0
7ec0
7f80
1fc0
07e0
03e0
c1e0
c1e0
e3c0
7f00
ENDCHAR
STARTCHAR diaeresis
ENCODING 168
SWIDTH 617 0
DWIDTH 15 0
BBX 7 3 4 14
BITMAP
c6
c6
c6
ENDCHAR
STARTCHAR Scaron
ENCODING 169
SWIDTH 556 0
DWIDTH 13 0
BBX 12 22 1 0
BITMAP
30c0
1980
0f00
0f00
0000
1fc0
78e0
7060
f060
f000
f800
fe00
7f80
3fc0
0fe0
03f0
01f0
00f0
c0f0
c0e0
e1c0
7f00
ENDCHAR
STARTCHAR Scedilla
ENCODING 170
SWIDTH 556 0
DWIDTH 13 0
BBX 12 23 1 -6
BITMAP
1fc0
78e0
7060
f060
f000
f800
fe00
7f80
3fc0
0fe0
03f0
01f0
00f0
c0f0
c0e0
e1c0
7f00
0600
0400
0f00
0700
0700
0e00
ENDCHAR
STARTCHAR Tcaron
ENCODING 171
SWIDTH 714 0
DWIDTH 17 0
BBX 16 22 1 0
BITMAP
0c30
0660
03c0
03c0
0000
ffff
c3c3
c3c3
c3c3
03c0
03c0
03c0
03c0
03c0
03c0
03c0
03c0
03c0
03c0
03c0
03c0
0ff0
ENDCHAR
STARTCHAR Zacute
ENCODING 172
SWIDTH 639 0
DWIDTH 15 0
BBX 13 22 1 0
BITMAP
00f0
00c0
0180
0300
0000
7ff8
60f8
60f8
01f0
01e0
03e0
07c0
0780
0f80
0f00
1f00
3e00
3c00
7c00
7818
f818
fff8
ENDCHAR
STARTCHAR hyphen
ENCODING 173
SWIDTH 289 0
DWIDTH 7 0
BBX 5 3 1 6
BITMAP
f8
f8
f8
ENDCHAR
STARTCHAR Zcaron
ENCODING 174
SWIDTH 639 0
DWIDTH 15 0
BBX 13 22 1 0
BITMAP
1860
0cc0
0780
0780
0000
7ff8
60f8
60f8
01f0
01e0
03e0
07c0
0780
0f80
0f00
1f00
3e00
3c00
7c00
7818
f818
fff8
ENDCHAR
STARTCHAR Zabovedot
ENCODING 175
SWIDTH 639 0
DWIDTH 15 0
BBX 13 22 1 0
BITMAP
0700
0700
0700
0700
0000
7ff8
60f8
60f8
01f0
01e0
03e0
07c0
0780
0f80
0f00
1f00
3e00
3c00
7c00
7818
f818
fff8
ENDCHAR
STARTCHAR degree
ENCODING 176
SWIDTH 259 0
DWIDTH 6 0
BBX 4 4 1 13
BITMAP
60
90
90
60
ENDCHAR
STARTCHAR aogonek
ENCODING 177
SWIDTH 556 0
DWIDTH 13 0
BBX 13 17 0 -4
BITMAP
3f80
71c0
61e0
01e0
01e0
3fe0
79e0
f1e0
f1e0
f1e0
f9e0
7fe0
3c78
0300
0600
0680
0380
ENDCHAR
STARTCHAR ogonek
ENCODING 178
SWIDTH 617 0
DWIDTH 15 0
BBX 4 4 6 -4
BITMAP
60
c0
d0
70
ENDCHAR
STARTCHAR lstroke
ENCODING 179
SWIDTH 325 0
DWIDTH 8 0
BBX 8 18 0 0
BITMAP
fc
3c
3c
3c
3c
3c
3d
3f
3c
7c
fc
bc
3c
3c
3c
3c
3c
ff
ENDCHAR
STARTCHAR acute
ENCODING 180
SWIDTH 617 0
DWIDTH 15 0
BBX 6 4 5 14
BITMAP
3c
30
60
c0
ENDCHAR
STARTCHAR lcaron
ENCODING 181
SWIDTH 458 0
DWIDTH 11 0
BBX 11 20 0 0
BITMAP
01e0
01e0
fde0
3de0
3ce0
3ce0
3dc0
3c00
3c00
3c00
3c00
3c00
3c00
3c00
3c00
3c00
3c00
3c00
3c00
ff00
ENDCHAR
STARTCHAR sacute
ENCODING 182
SWIDTH 525 0
DWIDTH 13 0
BBX 10 18 1 0
BITMAP
03c0
0300
0600
0c00
0000
3f00
7980
f180
f180
f800
ff00
7f80
3fc0
07c0
c3c0
c3c0
e780
7e00
ENDCHAR
STARTCHAR caron
ENCODING 183
SWIDTH 617 0
DWIDTH 15 0
BBX 8 4 3 14
BITMAP
c3
66
3c
3c
ENDCHAR
STARTCHAR cedilla
ENCODING 184
SWIDTH 617 0
DWIDTH 15 0
BBX 4 6 6 -5
BITMAP
60
40
f0
70
70
e0
ENDCHAR
STARTCHAR scaron
ENCODING 185
SWIDTH 525 0
DWIDTH 13 0
BBX 10 18 1 0
BITMAP
6180
3300
1e00
1e00
0000
3f00
7980
f180
f180
f800
ff00
7f80
3fc0
07c0
c3c0
c3c0
e780
7e00
ENDCHAR
STARTCHAR scedilla
ENCODING 186
SWIDTH 525 0
DWIDTH 13 0
BBX 10 19 1 -6
BITMAP
3f00
7980
f180
f180
f800
ff00
7f80
3fc0
07c0
c3c0
c3c0
e780
7e00
0c00
0800
1e00
0e00
0e00
1c00
ENDCHAR
STARTCHAR tcaron
ENCODING 187
SWIDTH 458 0
DWIDTH 11 0
BBX 11 21 0 0
BITMAP
01e0
01e0
01e0
01e0
00e0
1ce0
3dc0
3c00
ff80
3c00
3c00
3c00
3c00
3c00
3c00
3c00
3c00
3c00
3c00
1f80
0f80
ENDCHAR
STARTCHAR zacute
ENCODING 188
SWIDTH 584 0
DWIDTH 14 0
BBX 12 18 1 0
BITMAP
01e0
0180
0300
0600
0000
fff0
c1f0
c3e0
03c0
07c0
0f80
1f00
1f00
3e00
7c00
7c30
f830
fff0
ENDCHAR
STARTCHAR doubleacute
ENCODING 189
SWIDTH 617 0
DWIDTH 15 0
BBX 8 4 5 14
BITMAP
3f
26
4c
d8
ENDCHAR
STARTCHAR zcaron
ENCODING 190
SWIDTH 584 0
DWIDTH 14 0
BBX 12 18 1 0
BITMAP
30c0
1980
0f00
0f00
0000
fff0
c1f0
c3e0
03c0
07c0
0f80
1f00
1f00
3e00
7c00
7c30
f830
fff0
ENDCHAR
STARTCHAR zabovedot
ENCODING 191
SWIDTH 584 0
DWIDTH 14 0
BBX 12 18 1 0
BITMAP
0e00
0e00
0e00
0e00
0000
fff0
c1f0
c3e0
03c0
07c0
0f80
1f00
1f00
3e00
7c00
7c30
f830
fff0
ENDCHAR
STARTCHAR Racute
ENCODING 192
SWIDTH 720 0
DWIDTH 17 0
BBX 17 22 0 0
BITMAP
00f000
00c000
018000
030000
000000
ffe000
3c7800
3c3c00
3c3c00
3c3c00
3c3c00
3c7c00
3cf800
3ff000
3de000
3cf000
3cf800
3c7c00
3c7c00
3c3e00
3c1f00
ff1f80
ENDCHAR
STARTCHAR Aacute
ENCODING 193
SWIDTH 795 0
DWIDTH 19 0
BBX 19 22 0 0
BITMAP
007800
006000
00c000
018000
000000
006000
00e000
00f000
01f000
01f800
017800
027800
027c00
043c00
043e00
081e00
0fff00
100f00
100780
200780
6003c0
f80fe0
ENDCHAR
STARTCHAR Acircumflex
ENCODING 194
SWIDTH 795 0
DWIDTH 19 0
BBX 19 22 0 0
BITMAP
00f000
00f000
019800
030c00
000000
006000
00e000
00f000
01f000
01f800
017800
027800
027c00
043c00
043e00
081e00
0fff00
100f00
100780
200780
6003c0
f80fe0
ENDCHAR
STARTCHAR Abreve
ENCODING 195
SWIDTH 795 0
DWIDTH 19 0
BBX 19 22 0 0
BITMAP
020400
03fc00
01f800
00f000
000000
006000
00e000
00f000
01f000
01f800
017800
027800
027c00
043c00
043e00
081e00
0fff00
100f00
100780
200780
6003c0
f80fe0
ENDCHAR
STARTCHAR Adiaeresis
ENCODING 196
SWIDTH 795 0
DWIDTH 19 0
BBX 19 21 0 0
BITMAP
031800
031800
031800
000000
006000
00e000
00f000
01f000
01f800
017800
027800
027c00
043c00
043e00
081e00
0fff00
100f00
100780
200780
6003c0
f80fe0
ENDCHAR
STARTCHAR Lacute
ENCODING 197
SWIDTH 584 0
DWIDTH 14 0
BBX 14 22 0 0
BITMAP
0780
0600
0c00
1800
0000
ff00
3c00
3c00
3c00
3c00
3c00
3c00
3c00
3c00
3c00
3c00
3c00
3c00
3c0c
3c0c
3c0c
fffc
ENDCHAR
STARTCHAR Cacute
ENCODING 198
SWIDTH 711 0
DWIDTH 17 0
BBX 15 22 1 0
BITMAP
003c
0030
0060
00c0
0000
03fc
1e0e
3c06
7806
7800
f000
f000
f000
f000
f000
f000
f800
7800
7c00
3e06
1ffe
03f8
ENDCHAR
STARTCHAR Ccedilla
ENCODING 199
SWIDTH 711 0
DWIDTH 17 0
BBX 15 22 1 -5
BITMAP
03fc
1e0e
3c06
7806
7800
f000
f000
f000
f000
f000
f000
f800
7800
7c00
3e06
1ffe
03f8
0100
03c0
01c0
01c0
0380
ENDCHAR
STARTCHAR Ccaron
ENCODING 200
SWIDTH 711 0
DWIDTH 17 0
BBX 15 22 1 0
BITMAP
0618
0330
01e0
01e0
0000
03fc
1e0e
3c06
7806
7800
f000
f000
f000
f000
f000
f000
f800
7800
7c00
3e06
1ffe
03f8
ENDCHAR
STARTCHAR Eacute
ENCODING 201
SWIDTH 601 0
DWIDTH 14 0
BBX 13 22 1 0
BITMAP
03c0
0300
0600
0c00
0000
fff8
3c18
3c18
3c00
3c00
3c00
3c00
3c20
3fe0
3c20
3c00
3c00
3c00
3c00
3c18
3c18
fff8
ENDCHAR
STARTCHAR Eogonek
ENCODING 202
SWIDTH 601 0
DWIDTH 14 0
BBX 13 21 1 -4
BITMAP
fff8
3c18
3c18
3c00
3c00
3c00
3c00
3c20
3fe0
3c20
3c00
3c00
3c00
3c00
3c18
3c18
fff8
0300
0600
0680
0380
ENDCHAR
STARTCHAR Ediaeresis
ENCODING 203
SWIDTH 601 0
DWIDTH 14 0
BBX 13 21 1 0
BITMAP
18c0
18c0
18c0
0000
fff8
3c18
3c18
3c00
3c00
3c00
3c00
3c20
3fe0
3c20
3c00
3c00
3c00
3c00
3c18
3c18
fff8
ENDCHAR
STARTCHAR Ecaron
ENCODING 204
SWIDTH 601 0
DWIDTH 14 0
BBX 13 22 1 0
BITMAP
1860
0cc0
0780
0780
0000
fff8
3c18
3c18
3c00
3c00
3c00
3c00
3c20
3fe0
3c20
3c00
3c00
3c00
3c00
3c18
3c18
fff8
ENDCHAR
STARTCHAR Iacute
ENCODING 205
SWIDTH 349 0
DWIDTH 8 0
BBX 8 22 0 0
BITMAP
0f
0c
18
30
00
ff
3c
3c
3c
3c
3c
3c
3c
3c
3c
3c
3c
3c
3c
3c
3c
ff
ENDCHAR
STARTCHAR Icircumflex
ENCODING 206
SWIDTH 349 0
DWIDTH 8 0
BBX 8 22 0 0
BITMAP
3c
3c
66
c3
00
ff
3c
3c
3c
3c
3c
3c
3c
3c
3c
3c
3c
3c
3c
3c
3c
ff
ENDCHAR
STARTCHAR Dcaron
ENCODING 207
SWIDTH 794 0
DWIDTH 19 0
BBX 18 22 0 0
BITMAP
0c3000
066000
03c000
03c000
000000
fff800
3c1e00
3c0f00
3c0780
3c0380
3c03c0
3c03c0
3c03c0
3c03c0
3c03c0
3c03c0
3c0380
3c0780
3c0780
3c0f00
3c1e00
fff800
ENDCHAR
STARTCHAR Dstroke
ENCODING 208
SWIDTH 794 0
DWIDTH 19 0
BBX 18 17 0 0
BITMAP
7ff800
3c1e00
3c0f00
3c0780
3c0380
3c03c0
3c03c0
3c03c0
ffc3c0
3c03c0
3c03c0
3c03c0
3c0780
3c0780
3c0f00
3c1e00
7ff800
ENDCHAR
STARTCHAR Nacute
ENCODING 209
SWIDTH 788 0
DWIDTH 19 0
BBX 18 22 0 0
BITMAP
003c00
003000
006000
00c000
000000
f80fc0
3c0300
3e0300
3f0300
3f0300
3f8300
37c300
33e300
33e300
31f300
30fb00
307f00
307f00
303f00
301f00
300f00
fc0f00
ENDCHAR
STARTCHAR Ncaron
ENCODING 210
SWIDTH 788 0
DWIDTH 19 0
BBX 18 22 0 0
BITMAP
061800
033000
01e000
01e000
000000
f80fc0
3c0300
3e0300
3f0300
3f0300
3f8300
37c300
33e300
33e300
31f300
30fb00
307f00
307f00
303f00
301f00
300f00
fc0f00
ENDCHAR
STARTCHAR Oacute
ENCODING 211
SWIDTH 810 0
DWIDTH 19 0
BBX 18 22 1 0
BITMAP
007800
006000
00c000
018000
000000
07f800
1e1e00
3c0f00
780780
780780
f003c0
f003c0
f003c0
f003c0
f003c0
f003c0
f003c0
780780
780780
3c0f00
1e1e00
03f000
ENDCHAR
STARTCHAR Ocircumflex
ENCODING 212
SWIDTH 810 0
DWIDTH 19 0
BBX 18 22 1 0
BITMAP
01e000
01e000
033000
061800
000000
07f800
1e1e00
3c0f00
780780
780780
f003c0
f003c0
f003c0
f003c0
f003c0
f003c0
f003c0
780780
780780
3c0f00
1e1e00
03f000
ENDCHAR
STARTCHAR Odoubleacute
ENCODING 213
SWIDTH 810 0
DWIDTH 19 0
BBX 18 22 1 0
BITMAP
00fc00
009800
013000
036000
000000
07f800
1e1e00
3c0f00
780780
780780
f003c0
f003c0
f003c0
f003c0
f003c0
f003c0
f003c0
780780
780780
3c0f00
1e1e00
03f000
ENDCHAR
STARTCHAR Odiaeresis
ENCODING 214
SWIDTH 810 0
DWIDTH 19 0
BBX 18 21 1 0
BITMAP
063000
063000
063000
000000
07f800
1e1e00
3c0f00
780780
780780
f003c0
f003c0
f003c0
f003c0
f003c0
f003c0
f003c0
780780
780780
3c0f00
1e1e00
03f000
ENDCHAR
STARTCHAR multiply
ENCODING 215
SWIDTH 623 0
DWIDTH 15 0
BBX 14 14 1 0
BITMAP
4008
e01c
7038
3870
1ce0
0fc0
0780
0780
0fc0
1ce0
3870
7038
e01c
4008
ENDCHAR
STARTCHAR Rcaron
ENCODING 216
SWIDTH 720 0
DWIDTH 17 0
BBX 17 22 0 0
BITMAP
186000
0cc000
078000
078000
000000
ffe000
3c7800
3c3c00
3c3c00
3c3c00
3c3c00
3c7c00
3cf800
3ff000
3de000
3cf000
3cf800
3c7c00
3c7c00
3c3e00
3c1f00
ff1f80
ENDCHAR
STARTCHAR Uring
ENCODING 217
SWIDTH 747 0
DWIDTH 18 0
BBX 18 22 0 0
BITMAP
00c000
012000
012000
00c000
000000
ff0fc0
3c0300
3c0300
3c0300
3c0300
3c0300
3c0300
3c0300
3c0300
3c0300
3c0300
3c0300
3c0300
3c0300
1e0600
0f0c00
03f800
ENDCHAR
STARTCHAR Uacute
ENCODING 218
SWIDTH 747 0
DWIDTH 18 0
BBX 18 22 0 0
BITMAP
007800
006000
00c000
018000
000000
ff0fc0
3c0300
3c0300
3c0300
3c0300
3c0300
3c0300
3c0300
3c0300
3c0300
3c0300
3c0300
3c0300
3c0300
1e0600
0f0c00
03f800
ENDCHAR
STARTCHAR Udoubleacute
ENCODING 219
SWIDTH 747 0
DWIDTH 18 0
BBX 18 22 0 0
BITMAP
00fc00
009800
013000
036000
000000
ff0fc0
3c0300
3c0300
3c0300
3c0300
3c0300
3c0300
3c0300
3c0300
3c0300
3c0300
3c0300
3c0300
3c0300
1e0600
0f0c00
03f800
ENDCHAR
STARTCHAR Udiaeresis
ENCODING 220
SWIDTH 747 0
DWIDTH 18 0
BBX 18 21 0 0
BITMAP
063000
063000
063000
000000
ff0fc0
3c0300
3c0300
3c0300
3c0300
3c0300
3c0300
3c0300
3c0300
3c0300
3c0300
3c0300
3c0300
3c0300
1e0600
0f0c00
03f800
ENDCHAR
STARTCHAR Yacute
ENCODING 221
SWIDTH 717 0
DWIDTH 17 0
BBX 18 22 0 0
BITMAP
007800
006000
00c000
018000
000000
ff07c0
7c0300
3e0200
1f0200
1f0400
0f8800
07c800
07d000
03e000
01e000
01e000
01e000
01e000
01e000
01e000
01e000
07f800
ENDCHAR
STARTCHAR Tcedilla
ENCODING 222
SWIDTH 714 0
DWIDTH 17 0
BBX 16 23 1 -6
BITMAP
ffff
c3c3
c3c3
c3c3
03c0
03c0
03c0
03c0
03c0
03c0
03c0
03c0
03c0
03c0
03c0
03c0
0ff0
0180
0100
03c0
01c0
01c0
0380
ENDCHAR
STARTCHAR ssharp
ENCODING 223
SWIDTH 700 0
DWIDTH 17 0
BBX 15 18 1 0
BITMAP
0fc0
1cf0
3cf0
3cf0
3ce0
3dc0
3d80
3f80
3fc0
3fe0
3df8
3cfc
3c7e
3c3e
3c1e
3d9e
3d9c
fdf8
ENDCHAR
STARTCHAR racute
ENCODING 224
SWIDTH 462 0
DWIDTH 11 0
BBX 11 18 0 0
BITMAP
01e0
0180
0300
0600
0000
fce0
3de0
3fe0
3e60
3c00
3c00
3c00
3c00
3c00
3c00
3c00
3c00
ff00
ENDCHAR
STARTCHAR aacute
ENCODING 225
SWIDTH 556 0
DWIDTH 13 0
BBX 13 18 0 0
BITMAP
03c0
0300
0600
0c00
0000
3f80
71c0
61e0
01e0
01e0
3fe0
79e0
f1e0
f1e0
f1e0
f9e0
7fe0
3c78
ENDCHAR
STARTCHAR acircumflex
ENCODING 226
SWIDTH 556 0
DWIDTH 13 0
BBX 13 18 0 0
BITMAP
0f00
0f00
1980
30c0
0000
3f80
71c0
61e0
01e0
01e0
3fe0
79e0
f1e0
f1e0
f1e0
f9e0
7fe0
3c78
ENDCHAR
STARTCHAR abreve
ENCODING 227
SWIDTH 556 0
DWIDTH 13 0
BBX 13 18 0 0
BITMAP
2040
3fc0
1f80
0f00
0000
3f80
71c0
61e0
01e0
01e0
3fe0
79e0
f1e0
f1e0
f1e0
f9e0
7fe0
3c78
ENDCHAR
STARTCHAR adiaeresis
ENCODING 228
SWIDTH 556 0
DWIDTH 13 0
BBX 13 17 0 0
BITMAP
18c0
18c0
18c0
0000
3f80
71c0
61e0
01e0
01e0
3fe0
79e0
f1e0
f1e0
f1e0
f9e0
7fe0
3c78
ENDCHAR
STARTCHAR lacute
ENCODING 229
SWIDTH 325 0
DWIDTH 8 0
BBX 8 23 0 0
BITMAP
0f
0c
18
30
00
fc
3c
3c
3c
3c
3c
3c
3c
3c
3c
3c
3c
3c
3c
3c
3c
3c
ff
ENDCHAR
STARTCHAR cacute
ENCODING 230
SWIDTH 541 0
DWIDTH 13 0
BBX 11 18 1 0
BITMAP
01e0
0180
0300
0600
0000
0fe0
38e0
7060
7060
f000
f000
f000
f000
f000
7800
7c20
3fe0
0fc0
ENDCHAR
STARTCHAR ccedilla
ENCODING 231
SWIDTH 541 0
DWIDTH 13 0
BBX 11 18 1 -5
BITMAP
0fe0
38e0
7060
7060
f000
f000
f000
f000
f000
7800
7c20
3fe0
0fc0
0400
0f00
0700
0700
0e00
ENDCHAR
STARTCHAR ccaron
ENCODING 232
SWIDTH 541 0
DWIDTH 13 0
BBX 11 18 1 0
BITMAP
30c0
1980
0f00
0f00
0000
0fe0
38e0
7060
7060
f000
f000
f000
f000
f000
7800
7c20
3fe0
0fc0
ENDCHAR
STARTCHAR eacute
ENCODING 233
SWIDTH 568 0
DWIDTH 14 0
BBX 12 18 1 0
BITMAP
03c0
0300
0600
0c00
0000
0f80
39c0
70e0
70f0
f0f0
fff0
f000
f000
f000
7800
7c10
3ff0
0fe0
ENDCHAR
STARTCHAR eogonek
ENCODING 234
SWIDTH 568 0
DWIDTH 14 0
BBX 12 17 1 -4
BITMAP
0f80
39c0
70e0
70f0
f0f0
fff0
f000
f000
f000
7800
7c10
3ff0
0fe0
0600
0c00
0d00
0700
ENDCHAR
STARTCHAR ediaeresis
ENCODING 235
SWIDTH 568 0
DWIDTH 14 0
BBX 12 17 1 0
BITMAP
18c0
18c0
18c0
0000
0f80
39c0
70e0
70f0
f0f0
fff0
f000
f000
f000
7800
7c10
3ff0
0fe0
ENDCHAR
STARTCHAR ecaron
ENCODING 236
SWIDTH 568 0
DWIDTH 14 0
BBX 12 18 1 0
BITMAP
30c0
1980
0f00
0f00
0000
0f80
39c0
70e0
70f0
f0f0
fff0
f000
f000
f000
7800
7c10
3ff0
0fe0
ENDCHAR
STARTCHAR iacute
ENCODING 237
SWIDTH 325 0
DWIDTH 8 0
BBX 8 18 0 0
BITMAP
0f
0c
18
30
00
fc
3c
3c
3c
3c
3c
3c
3c
3c
3c
3c
3c
ff
ENDCHAR
STARTCHAR icircumflex
ENCODING 238
SWIDTH 325 0
DWIDTH 8 0
BBX 8 18 0 0
BITMAP
3c
3c
66
c3
00
fc
3c
3c
3c
3c
3c
3c
3c
3c
3c
3c
3c
ff
ENDCHAR
STARTCHAR dcaron
ENCODING 239
SWIDTH 791 0
DWIDTH 19 0
BBX 18 20 1 0
BITMAP
0003c0
0003c0
01fbc0
007bc0
0079c0
0079c0
007b80
1e7800
3ff800
78f800
707800
f07800
f07800
f07800
f07800
f07800
f8f800
7ff800
7f7c00
1e7e00
ENDCHAR
STARTCHAR dstroke
ENCODING 240
SWIDTH 708 0
DWIDTH 17 0
BBX 16 18 1 0
BITMAP
01f8
0078
03ff
03ff
0078
1e78
3ff8
78f8
7078
f078
f078
f078
f078
f078
f8f8
7ff8
7f7c
1e7e
ENDCHAR
STARTCHAR nacute
ENCODING 241
SWIDTH 654 0
DWIDTH 16 0
BBX 16 18 0 0
BITMAP
00f0
00c0
0180
0300
0000
fc70
7df8
3dfc
3e3c
3c3c
3c3c
3c3c
3c3c
3c3c
3c3c
3c3c
3c3c
ffff
ENDCHAR
STARTCHAR ncaron
ENCODING 242
SWIDTH 654 0
DWIDTH 16 0
BBX 16 18 0 0
BITMAP
1860
0cc0
0780
0780
0000
fc70
7df8
3dfc
3e3c
3c3c
3c3c
3c3c
3c3c
3c3c
3c3c
3c3c
3c3c
ffff
ENDCHAR
STARTCHAR oacute
ENCODING 243
SWIDTH 617 0
DWIDTH 15 0
BBX 13 18 1 0
BITMAP
03c0
0300
0600
0c00
0000
0f80
38e0
78f0
7070
f078
f078
f078
f078
f078
7070
78f0
38e0
0f80
ENDCHAR
STARTCHAR ocircumflex
ENCODING 244
SWIDTH 617 0
DWIDTH 15 0
BBX 13 18 1 0
BITMAP
0f00
0f00
1980
30c0
0000
0f80
38e0
78f0
7070
f078
f078
f078
f078
f078
7070
78f0
38e0
0f80
ENDCHAR
STARTCHAR odoubleacute
ENCODING 245
SWIDTH 617 0
DWIDTH 15 0
BBX 13 18 1 0
BITMAP
03f0
0260
04c0
0d80
0000
0f80
38e0
78f0
7070
f078
f078
f078
f078
f078
7070
78f0
38e0
0f80
ENDCHAR
STARTCHAR odiaeresis
ENCODING 246
SWIDTH 617 0
DWIDTH 15 0
BBX 13 17 1 0
BITMAP
18c0
18c0
18c0
0000
0f80
38e0
78f0
7070
f078
f078
f078
f078
f078
7070
78f0
38e0
0f80
ENDCHAR
STARTCHAR division
ENCODING 247
SWIDTH 623 0
DWIDTH 15 0
BBX 15 13 0 0
BITMAP
0380
0380
0380
0000
0000
0000
fffe
fffe
0000
0000
0380
0380
0380
ENDCHAR
STARTCHAR rcaron
ENCODING 248
SWIDTH 462 0
DWIDTH 11 0
BBX 11 18 0 0
BITMAP
30c0
1980
0f00
0f00
0000
fce0
3de0
3fe0
3e60
3c00
3c00
3c00
3c00
3c00
3c00
3c00
3c00
ff00
ENDCHAR
STARTCHAR uring
ENCODING 249
SWIDTH 654 0
DWIDTH 16 0
BBX 16 18 0 0
BITMAP
0300
0480
0480
0300
0000
fcfc
3c3c
3c3c
3c3c
3c3c
3c3c
3c3c
3c3c
3c3c
3c7c
3fbc
1fbe
0e3f
ENDCHAR
STARTCHAR uacute
ENCODING 250
SWIDTH 654 0
DWIDTH 16 0
BBX 16 18 0 0
BITMAP
00f0
00c0
0180
0300
0000
fcfc
3c3c
3c3c
3c3c
3c3c
3c3c
3c3c
3c3c
3c3c
3c7c
3fbc
1fbe
0e3f
ENDCHAR
STARTCHAR udoubleacute
ENCODING 251
SWIDTH 654 0
DWIDTH 16 0
BBX 16 18 0 0
BITMAP
03f0
0260
04c0
0d80
0000
fcfc
3c3c
3c3c
3c3c
3c3c
3c3c
3c3c
3c3c
3c3c
3c7c
3fbc
1fbe
0e3f
ENDCHAR
STARTCHAR udiaeresis
ENCODING 252
SWIDTH 654 0
DWIDTH 16 0
BBX 16 17 0 0
BITMAP
0630
0630
0630
0000
fcfc
3c3c
3c3c
3c3c
3c3c
3c3c
3c3c
3c3c
3c3c
3c7c
3fbc
1fbe
0e3f
ENDCHAR
STARTCHAR yacute
ENCODING 253
SWIDTH 654 0
DWIDTH 16 0
BBX 16 23 0 -5
BITMAP
00f0
00c0
0180
0300
0000
fe1f
7c04
3c0c
3e08
1e18
1f10
0f30
0fa0
07c0
07c0
0380
0380
0300
0100
0200
0600
0c00
3c00
ENDCHAR
STARTCHAR tcedilla
ENCODING 254
SWIDTH 389 0
DWIDTH 9 0
BBX 9 22 0 -6
BITMAP
1c00
3c00
3c00
ff80
3c00
3c00
3c00
3c00
3c00
3c00
3c00
3c00
3c00
3c00
1f80
0f80
0c00
0800
1e00
0e00
0e00
1c00
ENDCHAR
STARTCHAR abovedot
ENCODING 255
SWIDTH 617 0
DWIDTH 15 0
BBX 3 4 6 13
BITMAP
e0
e0
e0
e0
ENDCHAR
ENDFONT
